<svg width="107" height="40" viewBox="0 0 107 40" fill="none" xmlns="http://www.w3.org/2000/svg">
<path d="M0 31.5789V0H4V19.0316H5.13684L13.1789 10.5263H18.3579L8.63158 21.0526L18.3579 31.5789H13.1789L5.13684 23.1579H4V31.5789H0Z" fill="#6600FF"/>
<path fill-rule="evenodd" clip-rule="evenodd" d="M53.6185 31.5789V28.547C53.38 28.8993 53.1133 29.2363 52.8185 29.5579C51.2747 31.214 49.3519 32.0421 47.0501 32.0421C45.0571 32.0421 43.415 31.4807 42.1238 30.3579C40.8606 29.207 40.2291 27.7333 40.2291 25.9368C40.2291 24.1684 40.8466 22.7088 42.0817 21.5579C43.3168 20.3789 45.001 19.6772 47.1343 19.4526L53.6185 18.6947V18.0211C53.6185 16.8702 53.1554 15.8737 52.229 15.0316C51.3027 14.1895 50.1659 13.7684 48.8185 13.7684C47.6115 13.7684 46.5308 14.0912 45.5764 14.7368C44.6501 15.3825 44.0606 16.2105 43.808 17.2211L40.0606 16C40.622 14.2316 41.6887 12.8 43.2606 11.7053C44.8606 10.6105 47.7951 10.0632 49.7881 10.0632C52.2302 10.0632 53.1975 10.8211 54.9659 12.3368C56.7624 13.8526 57.6606 15.6491 57.6606 17.7263V31.5789H53.6185ZM53.6185 22.1895L48.0606 22.8632C45.5062 23.1719 44.2291 24.1263 44.2291 25.7263C44.2291 26.5684 44.5799 27.2421 45.2817 27.7474C45.9834 28.2246 46.9378 28.4632 48.1448 28.4632C49.801 28.4632 51.1203 27.986 52.1027 27.0316C53.1133 26.0772 53.6185 24.814 53.6185 23.2421V22.1895Z" fill="#6600FF"/>
<path fill-rule="evenodd" clip-rule="evenodd" d="M63.4603 10.5263H59.4603V40H63.4603V27.5559C63.8121 28.1289 64.2192 28.6699 64.6813 29.1789C66.6462 31.3123 69.0603 32.3789 71.9234 32.3789C74.8708 32.3789 77.355 31.3123 79.3761 29.1789C81.4252 27.0175 82.4497 24.3088 82.4497 21.0526C82.4497 17.7965 81.4252 15.1018 79.3761 12.9684C77.355 10.807 74.8708 9.72632 71.9234 9.72632C69.0603 9.72632 66.6462 10.807 64.6813 12.9684C64.2192 13.4775 63.8121 14.0193 63.4603 14.5938V10.5263ZM63.4603 21.0947C63.4603 23.2561 64.1761 25.0386 65.6076 26.4421C67.0673 27.8456 68.8497 28.5474 70.955 28.5474C73.0603 28.5474 74.8287 27.8456 76.2603 26.4421C77.7199 25.0386 78.4497 23.2561 78.4497 21.0947C78.4497 18.9053 77.7199 17.1088 76.2603 15.7053C74.8287 14.2737 73.0603 13.5579 70.955 13.5579C68.8497 13.5579 67.0673 14.2737 65.6076 15.7053C64.1761 17.1088 63.4603 18.9053 63.4603 21.0947Z" fill="#6600FF"/>
<path fill-rule="evenodd" clip-rule="evenodd" d="M18.3579 10.5263V31.5789H22.3578V19.2842C22.3578 17.7965 22.8911 16.5333 23.9578 15.4947C25.0525 14.4281 26.3437 13.8947 27.8314 13.8947C29.2911 13.8947 30.4841 14.3719 31.4104 15.3263C31.9173 15.8486 32.2855 16.4802 32.5151 17.2211L36.4923 32.0421H40.6572L36.618 16.3804C36.3145 14.7958 35.6313 13.462 34.5683 12.3789C33.0806 10.8351 31.2279 10.0632 29.0104 10.0632C26.5964 10.0632 24.5613 10.9614 22.9051 12.7579C22.7111 12.972 22.5287 13.1915 22.3578 13.4163V10.5263H18.3579Z" fill="#6600FF"/>
<path fill-rule="evenodd" clip-rule="evenodd" d="M103.672 12.9327C101.651 10.7713 99.1666 9.69056 96.2192 9.69056C94.5014 9.69056 92.9453 10.0796 91.5509 10.8576C91.1328 11.0942 90.7288 11.3669 90.3363 11.6755L90.3397 11.6626L90.8681 9.69056L87.0044 8.65528L79.3761 37.1247L83.2398 38.16L86.7781 24.9547C86.9903 25.8625 87.3048 26.7119 87.756 27.5029C87.8117 27.6005 87.8695 27.6972 87.9294 27.793C88.2397 28.2656 88.589 28.7157 88.9771 29.1432C89.7855 29.9966 90.6344 30.6792 91.5507 31.1913C92.9452 31.9592 94.5013 32.3432 96.2192 32.3432C99.1666 32.3432 101.651 31.2765 103.672 29.1432C105.721 26.9818 106.746 24.273 106.746 21.0169C106.746 17.7607 105.721 15.066 103.672 12.9327ZM89.9034 15.6695C91.3631 14.2379 93.1455 13.5221 95.2508 13.5221C97.356 13.5221 99.1245 14.2379 100.556 15.6695C102.016 17.073 102.746 18.8695 102.746 21.059C102.746 23.2204 102.016 25.0028 100.556 26.4064C99.1245 27.8099 97.356 28.5116 95.2508 28.5116C93.1455 28.5116 91.3631 27.8099 89.9034 26.4064C88.5241 25.0541 87.8093 23.3501 87.7589 21.2943L87.756 21.305V21.059C87.756 19.4165 88.1589 17.9952 88.9645 16.795C89.2328 16.3953 89.5458 16.0201 89.9034 15.6695Z" fill="#6600FF"/>
</svg>
