<svg width="104" height="27" viewBox="0 0 104 27" fill="none" xmlns="http://www.w3.org/2000/svg">
<path d="M20.6039 4.5597L24.7855 0.286865H26.3297L40.1061 18.1221V0.286865H45.8665V11.196L39.9138 26.4592L26.5032 8.74718L26.3297 26.7131H20.6039V4.5597Z" fill="#2A1EFB"/>
<path d="M19.5195 19.8331V26.7131H17.7671L8.95295 15.1169L5.89923 18.2528V26.7131H0V0.286865H5.89923V11.2624L16.5873 0.286865H23.4581L12.9089 11.0664L19.5195 19.8331Z" fill="#2A1EFB"/>
<path fill-rule="evenodd" clip-rule="evenodd" d="M62.354 12.7685V26.7131H61.5472L59.361 21.258H49.02L46.8338 26.7131H40.9346L51.2409 0.286865H57.7647L62.354 12.7685ZM54.1905 8.35519L50.9633 16.3909H57.4177L54.1905 8.35519Z" fill="#2A1EFB"/>
<path d="M63.4384 0.286865V26.7131H69.65V17.2075C69.65 17.2075 69.2683 17.2075 75.2022 17.2075C81.3096 17.2075 85.0227 13.1897 85.0227 8.81251C85.0227 4.43536 81.3096 0.286865 75.1675 0.286865H63.4384ZM75.6533 12.079H69.65V5.41532H75.6533C77.8395 5.41532 79.5746 6.75459 79.5746 8.81251C79.5746 10.8378 77.8395 12.079 75.6533 12.079Z" fill="#2A1EFB"/>
<path fill-rule="evenodd" clip-rule="evenodd" d="M82.4157 15.7494C84.7767 14.0749 86.1071 11.517 86.1071 8.81251C86.1071 6.11408 84.7809 3.5126 82.4157 1.7996V0.286865H94.1448C100.287 0.286865 104 4.43536 104 8.81251C104 13.1897 100.287 17.2075 94.1795 17.2075H88.6273V26.7131H82.4157V15.7494ZM88.6273 12.079H94.6306C96.8168 12.079 98.5519 10.8378 98.5519 8.81251C98.5519 6.75459 96.8168 5.41532 94.6306 5.41532H88.6273V12.079Z" fill="#2A1EFB"/>
</svg>
